<mxfile host="65bd71144e">
    <diagram id="8yOKCfvV1J4oh3S0AKds" name="Page-1">
        <mxGraphModel dx="2073" dy="779" grid="1" gridSize="10" guides="1" tooltips="1" connect="1" arrows="1" fold="1" page="1" pageScale="1" pageWidth="850" pageHeight="1100" math="0" shadow="0">
            <root>
                <mxCell id="0"/>
                <mxCell id="1" parent="0"/>
                <mxCell id="2" value="MOBILE&lt;br&gt;" style="rounded=1;whiteSpace=wrap;html=1;" parent="1" vertex="1">
                    <mxGeometry x="320" y="190" width="120" height="60" as="geometry"/>
                </mxCell>
                <mxCell id="3" value="" style="strokeWidth=1;shadow=0;dashed=0;align=center;html=1;shape=mxgraph.mockup.containers.browserWindow;rSize=0;strokeColor=#666666;strokeColor2=#008cff;strokeColor3=#c4c4c4;mainText=,;recursiveResize=0;" parent="1" vertex="1">
                    <mxGeometry x="-40" y="330" width="840" height="1460" as="geometry"/>
                </mxCell>
                <mxCell id="4" value="Page 1" style="strokeWidth=1;shadow=0;dashed=0;align=center;html=1;shape=mxgraph.mockup.containers.anchor;fontSize=17;fontColor=#666666;align=left;" parent="3" vertex="1">
                    <mxGeometry x="60" y="12" width="110" height="26" as="geometry"/>
                </mxCell>
                <mxCell id="5" value="https://www.draw.io" style="strokeWidth=1;shadow=0;dashed=0;align=center;html=1;shape=mxgraph.mockup.containers.anchor;rSize=0;fontSize=17;fontColor=#666666;align=left;" parent="3" vertex="1">
                    <mxGeometry x="130" y="60" width="250" height="26" as="geometry"/>
                </mxCell>
                <mxCell id="6" value="" style="rounded=0;whiteSpace=wrap;html=1;" parent="3" vertex="1">
                    <mxGeometry y="110" width="840" height="70" as="geometry"/>
                </mxCell>
                <mxCell id="7" value="" style="rounded=1;whiteSpace=wrap;html=1;" parent="3" vertex="1">
                    <mxGeometry x="800" y="120" width="30" height="10" as="geometry"/>
                </mxCell>
                <mxCell id="8" value="" style="rounded=1;whiteSpace=wrap;html=1;" parent="3" vertex="1">
                    <mxGeometry x="800" y="140" width="30" height="10" as="geometry"/>
                </mxCell>
                <mxCell id="9" value="" style="rounded=1;whiteSpace=wrap;html=1;" parent="3" vertex="1">
                    <mxGeometry x="800" y="160" width="30" height="10" as="geometry"/>
                </mxCell>
                <mxCell id="10" value="LOGO" style="ellipse;whiteSpace=wrap;html=1;" parent="3" vertex="1">
                    <mxGeometry x="10" y="115" width="120" height="60" as="geometry"/>
                </mxCell>
                <mxCell id="11" value="" style="shape=singleArrow;direction=west;whiteSpace=wrap;html=1;" parent="3" vertex="1">
                    <mxGeometry x="30" y="240" width="90" height="30" as="geometry"/>
                </mxCell>
                <mxCell id="12" value="" style="line;strokeWidth=2;html=1;" parent="3" vertex="1">
                    <mxGeometry y="300" width="840" height="10" as="geometry"/>
                </mxCell>
                <mxCell id="13" value="show/hide filter" style="rounded=1;whiteSpace=wrap;html=1;" parent="3" vertex="1">
                    <mxGeometry x="580" y="240" width="100" height="45" as="geometry"/>
                </mxCell>
                <mxCell id="14" value="" style="verticalLabelPosition=bottom;shadow=0;dashed=0;align=center;html=1;verticalAlign=top;strokeWidth=1;shape=mxgraph.mockup.markup.line;strokeColor=#999999;direction=north;" parent="3" vertex="1">
                    <mxGeometry x="160" y="310" width="20" height="1150" as="geometry"/>
                </mxCell>
                <mxCell id="15" value="Provide search filter results here" style="whiteSpace=wrap;html=1;aspect=fixed;" parent="3" vertex="1">
                    <mxGeometry x="20" y="560" width="130" height="130" as="geometry"/>
                </mxCell>
                <mxCell id="16" value="" style="whiteSpace=wrap;html=1;aspect=fixed;" parent="3" vertex="1">
                    <mxGeometry x="220" y="400" width="220" height="220" as="geometry"/>
                </mxCell>
                <mxCell id="17" value="" style="whiteSpace=wrap;html=1;aspect=fixed;" parent="3" vertex="1">
                    <mxGeometry x="540" y="400" width="220" height="220" as="geometry"/>
                </mxCell>
                <mxCell id="18" value="" style="whiteSpace=wrap;html=1;aspect=fixed;" parent="3" vertex="1">
                    <mxGeometry x="220" y="680" width="220" height="220" as="geometry"/>
                </mxCell>
                <mxCell id="19" value="" style="whiteSpace=wrap;html=1;aspect=fixed;" parent="3" vertex="1">
                    <mxGeometry x="540" y="680" width="220" height="220" as="geometry"/>
                </mxCell>
                <mxCell id="20" value="" style="whiteSpace=wrap;html=1;aspect=fixed;" parent="3" vertex="1">
                    <mxGeometry x="220" y="1020" width="220" height="220" as="geometry"/>
                </mxCell>
                <mxCell id="21" value="" style="whiteSpace=wrap;html=1;aspect=fixed;" parent="3" vertex="1">
                    <mxGeometry x="560" y="1020" width="220" height="220" as="geometry"/>
                </mxCell>
                <mxCell id="22" value="&lt;span style=&quot;color: rgba(0, 0, 0, 0); font-family: monospace; font-size: 0px; text-align: start;&quot;&gt;%3CmxGraphModel%3E%3Croot%3E%3CmxCell%20id%3D%220%22%2F%3E%3CmxCell%20id%3D%221%22%20parent%3D%220%22%2F%3E%3CmxCell%20id%3D%222%22%20value%3D%22%22%20style%3D%22whiteSpace%3Dwrap%3Bhtml%3D1%3Baspect%3Dfixed%3B%22%20vertex%3D%221%22%20parent%3D%221%22%3E%3CmxGeometry%20x%3D%22180%22%20y%3D%22730%22%20width%3D%22220%22%20height%3D%22220%22%20as%3D%22geometry%22%2F%3E%3C%2FmxCell%3E%3C%2Froot%3E%3C%2FmxGraphModel%3E&lt;/span&gt;" style="rounded=0;whiteSpace=wrap;html=1;" parent="3" vertex="1">
                    <mxGeometry x="220" y="1170" width="220" height="70" as="geometry"/>
                </mxCell>
                <mxCell id="25" value="&lt;span style=&quot;color: rgba(0, 0, 0, 0); font-family: monospace; font-size: 0px; text-align: start;&quot;&gt;%3CmxGraphModel%3E%3Croot%3E%3CmxCell%20id%3D%220%22%2F%3E%3CmxCell%20id%3D%221%22%20parent%3D%220%22%2F%3E%3CmxCell%20id%3D%222%22%20value%3D%22%22%20style%3D%22whiteSpace%3Dwrap%3Bhtml%3D1%3Baspect%3Dfixed%3B%22%20vertex%3D%221%22%20parent%3D%221%22%3E%3CmxGeometry%20x%3D%22180%22%20y%3D%22730%22%20width%3D%22220%22%20height%3D%22220%22%20as%3D%22geometry%22%2F%3E%3C%2FmxCell%3E%3C%2Froot%3E%3C%2FmxGraphModel%3E&lt;/span&gt;" style="rounded=0;whiteSpace=wrap;html=1;" parent="3" vertex="1">
                    <mxGeometry x="560" y="1170" width="220" height="70" as="geometry"/>
                </mxCell>
                <mxCell id="26" value="&lt;span style=&quot;color: rgba(0, 0, 0, 0); font-family: monospace; font-size: 0px; text-align: start;&quot;&gt;%3CmxGraphModel%3E%3Croot%3E%3CmxCell%20id%3D%220%22%2F%3E%3CmxCell%20id%3D%221%22%20parent%3D%220%22%2F%3E%3CmxCell%20id%3D%222%22%20value%3D%22%22%20style%3D%22whiteSpace%3Dwrap%3Bhtml%3D1%3Baspect%3Dfixed%3B%22%20vertex%3D%221%22%20parent%3D%221%22%3E%3CmxGeometry%20x%3D%22180%22%20y%3D%22730%22%20width%3D%22220%22%20height%3D%22220%22%20as%3D%22geometry%22%2F%3E%3C%2FmxCell%3E%3C%2Froot%3E%3C%2FmxGraphModel%3E&lt;/span&gt;" style="rounded=0;whiteSpace=wrap;html=1;" parent="3" vertex="1">
                    <mxGeometry x="220" y="830" width="220" height="70" as="geometry"/>
                </mxCell>
                <mxCell id="27" value="&lt;span style=&quot;color: rgba(0, 0, 0, 0); font-family: monospace; font-size: 0px; text-align: start;&quot;&gt;%3CmxGraphModel%3E%3Croot%3E%3CmxCell%20id%3D%220%22%2F%3E%3CmxCell%20id%3D%221%22%20parent%3D%220%22%2F%3E%3CmxCell%20id%3D%222%22%20value%3D%22%22%20style%3D%22whiteSpace%3Dwrap%3Bhtml%3D1%3Baspect%3Dfixed%3B%22%20vertex%3D%221%22%20parent%3D%221%22%3E%3CmxGeometry%20x%3D%22180%22%20y%3D%22730%22%20width%3D%22220%22%20height%3D%22220%22%20as%3D%22geometry%22%2F%3E%3C%2FmxCell%3E%3C%2Froot%3E%3C%2FmxGraphModel%3E&lt;/span&gt;" style="rounded=0;whiteSpace=wrap;html=1;" parent="3" vertex="1">
                    <mxGeometry x="540" y="830" width="220" height="70" as="geometry"/>
                </mxCell>
                <mxCell id="28" value="&lt;span style=&quot;color: rgba(0, 0, 0, 0); font-family: monospace; font-size: 0px; text-align: start;&quot;&gt;gagdagdag&lt;/span&gt;" style="rounded=0;whiteSpace=wrap;html=1;" parent="3" vertex="1">
                    <mxGeometry x="220" y="550" width="220" height="70" as="geometry"/>
                </mxCell>
                <mxCell id="29" value="&lt;span style=&quot;color: rgba(0, 0, 0, 0); font-family: monospace; font-size: 0px; text-align: start;&quot;&gt;%3CmxGraphModel%3E%3Croot%3E%3CmxCell%20id%3D%220%22%2F%3E%3CmxCell%20id%3D%221%22%20parent%3D%220%22%2F%3E%3CmxCell%20id%3D%222%22%20value%3D%22%22%20style%3D%22whiteSpace%3Dwrap%3Bhtml%3D1%3Baspect%3Dfixed%3B%22%20vertex%3D%221%22%20parent%3D%221%22%3E%3CmxGeometry%20x%3D%22180%22%20y%3D%22730%22%20width%3D%22220%22%20height%3D%22220%22%20as%3D%22geometry%22%2F%3E%3C%2FmxCell%3E%3C%2Froot%3E%3C%2FmxGraphModel%3E&lt;/span&gt;" style="rounded=0;whiteSpace=wrap;html=1;" parent="3" vertex="1">
                    <mxGeometry x="540" y="550" width="220" height="70" as="geometry"/>
                </mxCell>
                <mxCell id="30" value="" style="html=1;verticalLabelPosition=bottom;align=center;labelBackgroundColor=#ffffff;verticalAlign=top;strokeWidth=2;strokeColor=#0080F0;shadow=0;dashed=0;shape=mxgraph.ios7.icons.heart;" parent="3" vertex="1">
                    <mxGeometry x="740" y="390" width="30.599999999999998" height="27.3" as="geometry"/>
                </mxCell>
                <mxCell id="32" value="" style="html=1;verticalLabelPosition=bottom;align=center;labelBackgroundColor=#ffffff;verticalAlign=top;strokeWidth=2;strokeColor=#0080F0;shadow=0;dashed=0;shape=mxgraph.ios7.icons.heart;" parent="3" vertex="1">
                    <mxGeometry x="420" y="390" width="30.599999999999998" height="27.3" as="geometry"/>
                </mxCell>
                <mxCell id="33" value="" style="html=1;verticalLabelPosition=bottom;align=center;labelBackgroundColor=#ffffff;verticalAlign=top;strokeWidth=2;strokeColor=#0080F0;shadow=0;dashed=0;shape=mxgraph.ios7.icons.heart;" parent="3" vertex="1">
                    <mxGeometry x="740" y="670" width="30.599999999999998" height="27.3" as="geometry"/>
                </mxCell>
                <mxCell id="34" value="" style="html=1;verticalLabelPosition=bottom;align=center;labelBackgroundColor=#ffffff;verticalAlign=top;strokeWidth=2;strokeColor=#0080F0;shadow=0;dashed=0;shape=mxgraph.ios7.icons.heart;" parent="3" vertex="1">
                    <mxGeometry x="420" y="670" width="30.599999999999998" height="27.3" as="geometry"/>
                </mxCell>
                <mxCell id="35" value="" style="html=1;verticalLabelPosition=bottom;align=center;labelBackgroundColor=#ffffff;verticalAlign=top;strokeWidth=2;strokeColor=#0080F0;shadow=0;dashed=0;shape=mxgraph.ios7.icons.heart;" parent="3" vertex="1">
                    <mxGeometry x="420" y="1010" width="30.599999999999998" height="27.3" as="geometry"/>
                </mxCell>
                <mxCell id="36" value="" style="html=1;verticalLabelPosition=bottom;align=center;labelBackgroundColor=#ffffff;verticalAlign=top;strokeWidth=2;strokeColor=#0080F0;shadow=0;dashed=0;shape=mxgraph.ios7.icons.heart;" parent="3" vertex="1">
                    <mxGeometry x="760" y="1010" width="30.599999999999998" height="27.3" as="geometry"/>
                </mxCell>
                <mxCell id="37" value="DESKTOP" style="rounded=1;whiteSpace=wrap;html=1;" parent="1" vertex="1">
                    <mxGeometry x="2030" y="210" width="240" height="60" as="geometry"/>
                </mxCell>
                <mxCell id="38" value="" style="strokeWidth=1;shadow=0;dashed=0;align=center;html=1;shape=mxgraph.mockup.containers.browserWindow;rSize=0;strokeColor=#666666;strokeColor2=#008cff;strokeColor3=#c4c4c4;mainText=,;recursiveResize=0;" parent="1" vertex="1">
                    <mxGeometry x="1800" y="340" width="1370" height="2170" as="geometry"/>
                </mxCell>
                <mxCell id="39" value="Page 1" style="strokeWidth=1;shadow=0;dashed=0;align=center;html=1;shape=mxgraph.mockup.containers.anchor;fontSize=17;fontColor=#666666;align=left;" parent="38" vertex="1">
                    <mxGeometry x="60" y="12" width="110" height="26" as="geometry"/>
                </mxCell>
                <mxCell id="40" value="https://www.draw.io" style="strokeWidth=1;shadow=0;dashed=0;align=center;html=1;shape=mxgraph.mockup.containers.anchor;rSize=0;fontSize=17;fontColor=#666666;align=left;" parent="38" vertex="1">
                    <mxGeometry x="130" y="60" width="250" height="26" as="geometry"/>
                </mxCell>
                <mxCell id="41" value="&lt;span style=&quot;white-space: pre;&quot;&gt;&#9;&lt;/span&gt;&lt;span style=&quot;white-space: pre;&quot;&gt;&#9;&lt;/span&gt;&lt;span style=&quot;white-space: pre;&quot;&gt;&#9;&lt;/span&gt;&lt;span style=&quot;white-space: pre;&quot;&gt;&#9;&lt;/span&gt;&lt;span style=&quot;white-space: pre;&quot;&gt;&#9;&lt;/span&gt;&lt;span style=&quot;white-space: pre;&quot;&gt;&#9;&lt;/span&gt;&lt;span style=&quot;white-space: pre;&quot;&gt;&#9;&lt;/span&gt;&lt;span style=&quot;white-space: pre;&quot;&gt;&#9;&lt;/span&gt;&lt;span style=&quot;white-space: pre;&quot;&gt;&#9;&lt;/span&gt;&lt;span style=&quot;white-space: pre;&quot;&gt;&#9;&lt;/span&gt;&lt;span style=&quot;white-space: pre;&quot;&gt;&#9;&lt;/span&gt;&lt;span style=&quot;white-space: pre;&quot;&gt;&#9;&lt;/span&gt;&lt;span style=&quot;white-space: pre;&quot;&gt;&#9;&lt;/span&gt;&lt;span style=&quot;white-space: pre;&quot;&gt;&#9;&lt;/span&gt;&lt;span style=&quot;white-space: pre;&quot;&gt;&#9;&lt;/span&gt;&lt;span style=&quot;white-space: pre;&quot;&gt;&#9;&lt;/span&gt;HOME&amp;nbsp;&lt;span style=&quot;white-space: pre;&quot;&gt;&#9;&lt;/span&gt;&lt;span style=&quot;white-space: pre;&quot;&gt;&#9;&lt;/span&gt;ABOUT&lt;span style=&quot;white-space: pre;&quot;&gt;&#9;&lt;/span&gt;&lt;span style=&quot;white-space: pre;&quot;&gt;&#9;&lt;/span&gt;CONTACT&lt;span style=&quot;white-space: pre;&quot;&gt;&#9;&lt;/span&gt;MANGA/LIGHT NOVELS&lt;span style=&quot;white-space: pre;&quot;&gt;&#9;&lt;/span&gt;FIGURES/COLLECTIBLES&lt;span style=&quot;white-space: pre;&quot;&gt;&#9;&lt;/span&gt;&lt;span style=&quot;white-space: pre;&quot;&gt;&#9;&lt;/span&gt;APPAREL&lt;span style=&quot;white-space: pre;&quot;&gt;&#9;&lt;/span&gt;&lt;span style=&quot;white-space: pre;&quot;&gt;&#9;&lt;/span&gt;ACCESSORIES" style="rounded=0;whiteSpace=wrap;html=1;" parent="38" vertex="1">
                    <mxGeometry y="110" width="1370" height="60" as="geometry"/>
                </mxCell>
                <mxCell id="42" value="LOGO" style="ellipse;whiteSpace=wrap;html=1;" parent="38" vertex="1">
                    <mxGeometry y="115" width="120" height="50" as="geometry"/>
                </mxCell>
                <mxCell id="43" value="" style="rounded=0;whiteSpace=wrap;html=1;rotation=90;" parent="38" vertex="1">
                    <mxGeometry x="-195" y="450" width="570" height="180" as="geometry"/>
                </mxCell>
                <mxCell id="44" value="search filter for shop items" style="whiteSpace=wrap;html=1;aspect=fixed;" parent="38" vertex="1">
                    <mxGeometry x="20" y="410" width="110" height="110" as="geometry"/>
                </mxCell>
                <mxCell id="45" value="" style="shape=singleArrow;direction=west;whiteSpace=wrap;html=1;" parent="38" vertex="1">
                    <mxGeometry x="10" y="182.5" width="100" height="60" as="geometry"/>
                </mxCell>
                <mxCell id="46" value="" style="rounded=0;whiteSpace=wrap;html=1;" parent="38" vertex="1">
                    <mxGeometry y="165" width="1370" height="95" as="geometry"/>
                </mxCell>
                <mxCell id="47" value="SHOW/HIDE FILTER" style="rounded=1;whiteSpace=wrap;html=1;" parent="38" vertex="1">
                    <mxGeometry x="1200" y="182.5" width="120" height="60" as="geometry"/>
                </mxCell>
                <mxCell id="50" value="" style="whiteSpace=wrap;html=1;aspect=fixed;" parent="38" vertex="1">
                    <mxGeometry x="260" y="332.5" width="265" height="265" as="geometry"/>
                </mxCell>
                <mxCell id="51" value="Add to cart" style="strokeWidth=1;shadow=0;dashed=0;align=center;html=1;shape=mxgraph.mockup.buttons.button;strokeColor=#666666;fontColor=#ffffff;mainText=;buttonStyle=round;fontSize=17;fontStyle=1;fillColor=#008cff;whiteSpace=wrap;" parent="38" vertex="1">
                    <mxGeometry x="317.5" y="670" width="150" height="50" as="geometry"/>
                </mxCell>
                <mxCell id="52" value="" style="whiteSpace=wrap;html=1;aspect=fixed;" parent="38" vertex="1">
                    <mxGeometry x="682.5" y="332.5" width="265" height="265" as="geometry"/>
                </mxCell>
                <mxCell id="53" value="Add to cart" style="strokeWidth=1;shadow=0;dashed=0;align=center;html=1;shape=mxgraph.mockup.buttons.button;strokeColor=#666666;fontColor=#ffffff;mainText=;buttonStyle=round;fontSize=17;fontStyle=1;fillColor=#008cff;whiteSpace=wrap;" parent="38" vertex="1">
                    <mxGeometry x="740" y="670" width="150" height="50" as="geometry"/>
                </mxCell>
                <mxCell id="54" value="" style="whiteSpace=wrap;html=1;aspect=fixed;" parent="38" vertex="1">
                    <mxGeometry x="1060" y="332.5" width="265" height="265" as="geometry"/>
                </mxCell>
                <mxCell id="55" value="Add to cart" style="strokeWidth=1;shadow=0;dashed=0;align=center;html=1;shape=mxgraph.mockup.buttons.button;strokeColor=#666666;fontColor=#ffffff;mainText=;buttonStyle=round;fontSize=17;fontStyle=1;fillColor=#008cff;whiteSpace=wrap;" parent="38" vertex="1">
                    <mxGeometry x="1140" y="670" width="150" height="50" as="geometry"/>
                </mxCell>
                <mxCell id="56" value="" style="whiteSpace=wrap;html=1;aspect=fixed;" parent="38" vertex="1">
                    <mxGeometry x="260" y="870" width="265" height="265" as="geometry"/>
                </mxCell>
                <mxCell id="57" value="" style="whiteSpace=wrap;html=1;aspect=fixed;" parent="38" vertex="1">
                    <mxGeometry x="690" y="870" width="265" height="265" as="geometry"/>
                </mxCell>
                <mxCell id="58" value="" style="whiteSpace=wrap;html=1;aspect=fixed;" parent="38" vertex="1">
                    <mxGeometry x="1050" y="870" width="265" height="265" as="geometry"/>
                </mxCell>
                <mxCell id="59" value="Add to cart" style="strokeWidth=1;shadow=0;dashed=0;align=center;html=1;shape=mxgraph.mockup.buttons.button;strokeColor=#666666;fontColor=#ffffff;mainText=;buttonStyle=round;fontSize=17;fontStyle=1;fillColor=#008cff;whiteSpace=wrap;" parent="38" vertex="1">
                    <mxGeometry x="317.5" y="1200" width="150" height="50" as="geometry"/>
                </mxCell>
                <mxCell id="60" value="Add to cart" style="strokeWidth=1;shadow=0;dashed=0;align=center;html=1;shape=mxgraph.mockup.buttons.button;strokeColor=#666666;fontColor=#ffffff;mainText=;buttonStyle=round;fontSize=17;fontStyle=1;fillColor=#008cff;whiteSpace=wrap;" parent="38" vertex="1">
                    <mxGeometry x="750" y="1200" width="150" height="50" as="geometry"/>
                </mxCell>
                <mxCell id="61" value="Add to cart" style="strokeWidth=1;shadow=0;dashed=0;align=center;html=1;shape=mxgraph.mockup.buttons.button;strokeColor=#666666;fontColor=#ffffff;mainText=;buttonStyle=round;fontSize=17;fontStyle=1;fillColor=#008cff;whiteSpace=wrap;" parent="38" vertex="1">
                    <mxGeometry x="1117.5" y="1200" width="150" height="50" as="geometry"/>
                </mxCell>
                <mxCell id="62" value="" style="rounded=0;whiteSpace=wrap;html=1;" parent="38" vertex="1">
                    <mxGeometry y="1420" width="1370" height="250" as="geometry"/>
                </mxCell>
                <mxCell id="63" value="ADD SUBSCRIBE TO NEWSLETTER FORM INDEX.HTML DRAWIO FILE" style="whiteSpace=wrap;html=1;aspect=fixed;" parent="38" vertex="1">
                    <mxGeometry x="682.5" y="1490" width="130" height="130" as="geometry"/>
                </mxCell>
                <mxCell id="64" value="helpful links&lt;span style=&quot;color: rgba(0, 0, 0, 0); font-family: monospace; font-size: 0px; text-align: start;&quot;&gt;%3CmxGraphModel%3E%3Croot%3E%3CmxCell%20id%3D%220%22%2F%3E%3CmxCell%20id%3D%221%22%20parent%3D%220%22%2F%3E%3CmxCell%20id%3D%222%22%20value%3D%22Add%20to%20cart%22%20style%3D%22strokeWidth%3D1%3Bshadow%3D0%3Bdashed%3D0%3Balign%3Dcenter%3Bhtml%3D1%3Bshape%3Dmxgraph.mockup.buttons.button%3BstrokeColor%3D%23666666%3BfontColor%3D%23ffffff%3BmainText%3D%3BbuttonStyle%3Dround%3BfontSize%3D17%3BfontStyle%3D1%3BfillColor%3D%23008cff%3BwhiteSpace%3Dwrap%3B%22%20vertex%3D%221%22%20parent%3D%221%22%3E%3CmxGeometry%20x%3D%222117.5%22%20y%3D%221020%22%20width%3D%22150%22%20height%3D%2250%22%20as%3D%22geometry%22%2F%3E%3C%2FmxCell%3E%3C%2Froot%3E%3C%2FmxGraphModel%3E&lt;/span&gt;" style="rounded=1;whiteSpace=wrap;html=1;" parent="38" vertex="1">
                    <mxGeometry x="190" y="1760" width="120" height="60" as="geometry"/>
                </mxCell>
                <mxCell id="65" value="Customer service&lt;span style=&quot;color: rgba(0, 0, 0, 0); font-family: monospace; font-size: 0px; text-align: start;&quot;&gt;%3CmxGraphModel%3E%3Croot%3E%3CmxCell%20id%3D%220%22%2F%3E%3CmxCell%20id%3D%221%22%20parent%3D%220%22%2F%3E%3CmxCell%20id%3D%222%22%20value%3D%22helpful%20links%26lt%3Bspan%20style%3D%26quot%3Bcolor%3A%20rgba(0%2C%200%2C%200%2C%200)%3B%20font-family%3A%20monospace%3B%20font-size%3A%200px%3B%20text-align%3A%20start%3B%26quot%3B%26gt%3B%253CmxGraphModel%253E%253Croot%253E%253CmxCell%2520id%253D%25220%2522%252F%253E%253CmxCell%2520id%253D%25221%2522%2520parent%253D%25220%2522%252F%253E%253CmxCell%2520id%253D%25222%2522%2520value%253D%2522Add%2520to%2520cart%2522%2520style%253D%2522strokeWidth%253D1%253Bshadow%253D0%253Bdashed%253D0%253Balign%253Dcenter%253Bhtml%253D1%253Bshape%253Dmxgraph.mockup.buttons.button%253BstrokeColor%253D%2523666666%253BfontColor%253D%2523ffffff%253BmainText%253D%253BbuttonStyle%253Dround%253BfontSize%253D17%253BfontStyle%253D1%253BfillColor%253D%2523008cff%253BwhiteSpace%253Dwrap%253B%2522%2520vertex%253D%25221%2522%2520parent%253D%25221%2522%253E%253CmxGeometry%2520x%253D%25222117.5%2522%2520y%253D%25221020%2522%2520width%253D%2522150%2522%2520height%253D%252250%2522%2520as%253D%2522geometry%2522%252F%253E%253C%252FmxCell%253E%253C%252Froot%253E%253C%252FmxGraphModel%253E%26lt%3B%2Fspan%26gt%3B%22%20style%3D%22rounded%3D1%3BwhiteSpace%3Dwrap%3Bhtml%3D1%3B%22%20vertex%3D%221%22%20parent%3D%221%22%3E%3CmxGeometry%20x%3D%221990%22%20y%3D%222100%22%20width%3D%22120%22%20height%3D%2260%22%20as%3D%22geometry%22%2F%3E%3C%2FmxCell%3E%3C%2Froot%3E%3C%2FmxGraphModel%3E&lt;/span&gt;&lt;br&gt;&lt;span style=&quot;color: rgba(0, 0, 0, 0); font-family: monospace; font-size: 0px; text-align: start;&quot;&gt;%3CmxGraphModel%3E%3Croot%3E%3CmxCell%20id%3D%220%22%2F%3E%3CmxCell%20id%3D%221%22%20parent%3D%220%22%2F%3E%3CmxCell%20id%3D%222%22%20value%3D%22helpful%20links%26lt%3Bspan%20style%3D%26quot%3Bcolor%3A%20rgba(0%2C%200%2C%200%2C%200)%3B%20font-family%3A%20monospace%3B%20font-size%3A%200px%3B%20text-align%3A%20start%3B%26quot%3B%26gt%3B%253CmxGraphModel%253E%253Croot%253E%253CmxCell%2520id%253D%25220%2522%252F%253E%253CmxCell%2520id%253D%25221%2522%2520parent%253D%25220%2522%252F%253E%253CmxCell%2520id%253D%25222%2522%2520value%253D%2522Add%2520to%2520cart%2522%2520style%253D%2522strokeWidth%253D1%253Bshadow%253D0%253Bdashed%253D0%253Balign%253Dcenter%253Bhtml%253D1%253Bshape%253Dmxgraph.mockup.buttons.button%253BstrokeColor%253D%2523666666%253BfontColor%253D%2523ffffff%253BmainText%253D%253BbuttonStyle%253Dround%253BfontSize%253D17%253BfontStyle%253D1%253BfillColor%253D%2523008cff%253BwhiteSpace%253Dwrap%253B%2522%2520vertex%253D%25221%2522%2520parent%253D%25221%2522%253E%253CmxGeometry%2520x%253D%25222117.5%2522%2520y%253D%25221020%2522%2520width%253D%2522150%2522%2520height%253D%252250%2522%2520as%253D%2522geometry%2522%252F%253E%253C%252FmxCell%253E%253C%252Froot%253E%253C%252FmxGraphModel%253E%26lt%3B%2Fspan%26gt%3B%22%20style%3D%22rounded%3D1%3BwhiteSpace%3Dwrap%3Bhtml%3D1%3B%22%20vertex%3D%221%22%20parent%3D%221%22%3E%3CmxGeometry%20x%3D%221990%22%20y%3D%222100%22%20width%3D%22120%22%20height%3D%2260%22%20as%3D%22geometry%22%2F%3E%3C%2FmxCell%3E%3C%2Froot%3E%3C%2FmxGraphModel%vice&lt;/span&gt;&lt;span style=&quot;color: rgba(0, 0, 0, 0); font-family: monospace; font-size: 0px; text-align: start;&quot;&gt;%3CmxGraphModel%3E%3Croot%3E%3CmxCell%20id%3D%220%22%2F%3E%3CmxCell%20id%3D%221%22%20parent%3D%220%22%2F%3E%3CmxCell%20id%3D%222%22%20value%3D%22helpful%20links%26lt%3Bspan%20style%3D%26quot%3Bcolor%3A%20rgba(0%2C%200%2C%200%2C%200)%3B%20font-family%3A%20monospace%3B%20font-size%3A%200px%3B%20text-align%3A%20start%3B%26quot%3B%26gt%3B%253CmxGraphModel%253E%253Croot%253E%253CmxCell%2520id%253D%25220%2522%252F%253E%253CmxCell%2520id%253D%25221%2522%2520parent%253D%25220%2522%252F%253E%253CmxCell%2520id%253D%25222%2522%2520value%253D%2522Add%2520to%2520cart%2522%2520style%253D%2522strokeWidth%253D1%253Bshadow%253D0%253Bdashed%253D0%253Balign%253Dcenter%253Bhtml%253D1%253Bshape%253Dmxgraph.mockup.buttons.button%253BstrokeColor%253D%2523666666%253BfontColor%253D%2523ffffff%253BmainText%253D%253BbuttonStyle%253Dround%253BfontSize%253D17%253BfontStyle%253D1%253BfillColor%253D%2523008cff%253BwhiteSpace%253Dwrap%253B%2522%2520vertex%253D%25221%2522%2520parent%253D%25221%2522%253E%253CmxGeometry%2520x%253D%25222117.5%2522%2520y%253D%25221020%2522%2520width%253D%2522150%2522%2520height%253D%252250%2522%2520as%253D%2522geometry%2522%252F%253E%253C%252FmxCell%253E%253C%252Froot%253E%253C%252FmxGraphModel%253E%26lt%3B%2Fspan%26gt%3B%22%20style%3D%22rounded%3D1%3BwhiteSpace%3Dwrap%3Bhtml%3D1%3B%22%20vertex%3D%221%22%20parent%3D%221%22%3E%3CmxGeometry%20x%3D%221990%22%20y%3D%222100%22%20width%3D%22120%22%20height%3D%2260%22%20as%3D%22geometry%22%2F%3E%3C%2FmxCell%3E%3C%2Froot%3E%3C%2FmxGraphModel%3E&lt;/span&gt;" style="rounded=1;whiteSpace=wrap;html=1;" parent="38" vertex="1">
                    <mxGeometry x="710" y="1760" width="120" height="60" as="geometry"/>
                </mxCell>
                <mxCell id="66" value="ABOUT SITE" style="rounded=1;whiteSpace=wrap;html=1;" parent="38" vertex="1">
                    <mxGeometry x="1132.5" y="1760" width="120" height="60" as="geometry"/>
                </mxCell>
                <mxCell id="49" value="This buttons helps to hide or disdplay search filter on the side of shop items" style="whiteSpace=wrap;html=1;aspect=fixed;" parent="1" vertex="1">
                    <mxGeometry x="3090" y="240" width="150" height="150" as="geometry"/>
                </mxCell>
                <mxCell id="48" value="" style="endArrow=classic;html=1;" parent="1" source="47" target="49" edge="1">
                    <mxGeometry width="50" height="50" relative="1" as="geometry">
                        <mxPoint x="2870" y="575" as="sourcePoint"/>
                        <mxPoint x="3130" y="280" as="targetPoint"/>
                    </mxGeometry>
                </mxCell>
            </root>
        </mxGraphModel>
    </diagram>
</mxfile>